<svg xmlns="http://www.w3.org/2000/svg" width="500" height="40" viewBox="0 0 244 40" fill="none">
  <g clip-path="url(#clip0_1_19608)">
    <path d="M21.8141 0V8.48921C27.3037 9.35252 31.6377 14.1007 31.6377 19.8561C31.6377 26.1871 26.4369 31.3669 20.0805 31.3669C14.013 31.3669 9.10124 26.7626 8.52339 20.8633H0C0.577857 31.5108 9.24571 40 20.0805 40C31.2043 40 40.161 31.0791 40.161 20C40.161 9.4964 32.0711 1.00719 21.8141 0Z" fill="#0057FF"/>
    <path d="M19.5027 0H0V8.34532H19.5027V0Z" fill="#0057FF"/>
    <path d="M15.0243 10.5036H0V18.9928H15.0243V10.5036Z" fill="#0057FF"/>
    <path d="M62.264 16.5467C61.9751 14.8201 57.9301 14.8201 58.0746 16.5467C58.0746 17.1223 58.508 17.2662 59.0858 17.6978C59.3748 17.8417 60.0971 18.1295 60.5305 18.2734L62.553 18.8489C64.1421 19.2805 65.1533 19.8561 66.598 20.7194C68.0426 21.5827 68.6205 23.3093 68.6205 25.3237C68.6205 27.3381 67.8982 29.0647 66.4535 30.3597C65.0089 31.6546 62.9864 32.2302 60.6749 32.2302C58.508 32.2302 56.6299 31.6546 55.0408 30.6475C53.4517 29.6403 52.4405 28.2014 52.0071 26.4748L57.6412 25.3237C57.9301 26.3309 59.2303 27.1942 60.8194 27.1942C62.1196 27.1942 63.2753 26.6187 63.2753 25.8993C63.2753 25.4676 62.8419 25.1798 62.264 24.7482C61.5417 24.4604 60.5305 24.0287 59.5192 23.741C57.9301 23.1654 57.0633 22.8777 55.7631 22.1582C53.8851 21.0072 52.8739 19.5683 52.7294 16.9784C52.7294 14.964 53.4517 13.3813 54.7519 12.2302C56.0521 11.0791 57.9301 10.3597 60.0971 10.3597C61.9751 10.3597 63.7087 10.7913 65.1533 11.7985C66.598 12.8057 67.4648 13.9568 67.8982 15.5395L62.264 16.5467Z" fill="black"/>
    <path d="M69.6318 23.8849C69.6318 21.5827 70.4986 19.5683 72.0877 17.9856C73.6768 16.4029 75.6993 15.5396 78.1552 15.5396C80.6111 15.5396 82.6336 16.259 84.2227 17.9856C85.8118 19.5683 86.6786 21.4388 86.6786 23.8849C86.6786 26.3309 85.8118 28.2014 84.2227 29.7842C82.6336 31.3669 80.6111 32.0863 78.1552 32.0863C75.6993 32.0863 73.6768 31.3669 72.0877 29.7842C70.4986 28.2014 69.6318 26.187 69.6318 23.8849ZM81.189 23.8849C81.189 22.1583 79.8888 20.8633 78.1552 20.8633C76.5661 20.8633 75.2659 22.1583 75.2659 23.8849C75.2659 25.6115 76.5661 26.9065 78.1552 26.9065C79.8888 26.9065 81.189 25.6115 81.189 23.8849Z" fill="black"/>
    <path d="M99.1024 22.8777C98.669 21.7266 97.6578 20.8633 96.2131 20.8633C94.4796 20.8633 93.3239 22.1583 93.3239 23.8849C93.3239 25.6115 94.624 26.9065 96.2131 26.9065C97.5133 26.9065 98.5246 26.0432 99.1024 24.8921L104.448 26.4748C103.87 28.2014 102.858 29.4964 101.414 30.6475C99.9692 31.6547 98.2356 32.2302 96.3576 32.2302C93.9017 32.2302 91.8792 31.5108 90.2901 29.9281C88.701 28.3453 87.8342 26.3309 87.8342 24.0288C87.8342 21.7266 88.701 19.7122 90.2901 18.1295C91.8792 16.5468 93.9017 15.8273 96.3576 15.8273C98.2356 15.8273 99.9692 16.4029 101.414 17.4101C102.858 18.4173 103.87 19.8561 104.448 21.4388L99.1024 22.8777Z" fill="black"/>
    <path d="M111.526 12.0863C111.526 13.9568 110.226 15.2518 108.348 15.2518C106.615 15.2518 105.17 13.9568 105.17 12.0863C105.17 10.2158 106.615 8.92084 108.348 8.92084C110.082 8.92084 111.526 10.2158 111.526 12.0863ZM105.603 31.7985V16.1151H110.948V31.7985H105.603Z" fill="black"/>
    <path d="M123.517 16.9784V16.1151H128.862V31.7985H123.517V30.9352C122.361 31.7985 121.061 32.2302 119.616 32.2302C117.594 32.2302 115.86 31.5108 114.416 29.928C113.115 28.3453 112.393 26.3309 112.393 24.0288C112.393 21.7266 113.115 19.7122 114.416 18.1295C115.86 16.5467 117.594 15.8273 119.616 15.8273C121.061 15.6834 122.361 16.1151 123.517 16.9784ZM120.772 20.8633C119.183 20.8633 118.027 22.1582 118.027 23.8849C118.027 25.6115 119.183 26.9064 120.772 26.9064C122.361 26.9064 123.517 25.6115 123.517 23.8849C123.517 22.1582 122.217 20.8633 120.772 20.8633Z" fill="black"/>
    <path d="M130.74 31.7985V9.0647H136.085V31.6546H130.74V31.7985Z" fill="black"/>
    <path d="M140.564 10.6475H150.243C152.265 10.6475 153.999 11.223 155.299 12.518C156.744 13.8129 157.322 15.3957 157.322 17.2662C157.322 18.705 156.888 19.8561 156.166 21.0072C155.444 22.1583 154.432 22.8777 153.132 23.4532L158.188 31.7985H154.432L149.665 24.0288H144.031V31.7985H140.564C140.564 31.7985 140.564 10.6475 140.564 10.6475ZM150.243 13.8129H143.886V20.8633H150.243C151.254 20.8633 152.121 20.5755 152.843 19.8561C153.565 19.1367 153.854 18.2734 153.854 17.2662C153.854 16.259 153.565 15.3957 152.843 14.6762C152.121 14.1007 151.254 13.8129 150.243 13.8129Z" fill="black"/>
    <path d="M175.957 25.0359H162.811C163.1 26.3309 163.678 27.3381 164.545 28.0575C165.411 28.7769 166.712 29.2086 168.012 29.2086C169.745 29.2086 171.19 28.4892 172.201 27.1942L175.235 28.2014C174.513 29.4964 173.501 30.3597 172.201 31.0791C170.901 31.7985 169.456 32.0863 167.867 32.0863C165.411 32.0863 163.389 31.3669 161.8 29.7841C160.211 28.2014 159.344 26.187 159.344 23.8849C159.344 21.5827 160.066 19.5683 161.655 17.9856C163.245 16.4028 165.267 15.6834 167.578 15.6834C169.89 15.6834 171.912 16.4028 173.357 17.9856C174.946 19.5683 175.668 21.5827 175.668 23.8849C176.102 24.0287 175.957 24.3165 175.957 25.0359ZM162.956 22.5899H172.779C172.49 21.4388 171.912 20.4316 170.901 19.7122C170.034 18.9928 168.879 18.5611 167.723 18.5611C166.567 18.5611 165.556 18.9928 164.689 19.7122C163.822 20.4316 163.245 21.4388 162.956 22.5899Z" fill="black"/>
    <path d="M182.025 38.5611H178.847V16.1151H182.025V17.8417C183.47 16.4029 185.203 15.8273 187.226 15.8273C189.393 15.8273 191.271 16.5468 192.715 18.1295C194.16 19.7122 194.882 21.5827 194.882 24.0288C194.882 26.4748 194.16 28.3453 192.715 29.9281C191.271 31.5108 189.393 32.2302 187.226 32.2302C185.203 32.2302 183.47 31.5108 182.025 30.2158V38.5611ZM186.937 18.8489C185.636 18.8489 184.481 19.2806 183.47 20.2878C182.603 21.295 182.025 22.446 182.025 23.8849C182.025 25.3237 182.458 26.6187 183.47 27.482C184.336 28.4892 185.492 28.9209 186.937 28.9209C188.237 28.9209 189.393 28.4892 190.404 27.482C191.271 26.4748 191.848 25.3237 191.848 23.8849C191.848 22.446 191.415 21.1511 190.404 20.2878C189.393 19.2806 188.237 18.8489 186.937 18.8489Z" fill="black"/>
    <path d="M213.663 25.0359H200.516C200.805 26.3309 201.383 27.3381 202.25 28.0575C203.117 28.7769 204.417 29.2086 205.717 29.2086C207.451 29.2086 208.895 28.4892 209.906 27.1942L212.94 28.2014C212.218 29.4964 211.207 30.3597 209.906 31.0791C208.606 31.7985 207.162 32.0863 205.573 32.0863C203.117 32.0863 201.094 31.3669 199.505 29.7841C197.916 28.2014 197.049 26.187 197.049 23.8849C197.049 21.5827 197.771 19.5683 199.361 17.9856C200.95 16.4028 202.972 15.6834 205.284 15.6834C207.595 15.6834 209.618 16.4028 211.062 17.9856C212.651 19.5683 213.374 21.5827 213.374 23.8849C213.807 24.0287 213.807 24.3165 213.663 25.0359ZM200.661 22.5899H210.484C210.195 21.4388 209.618 20.4316 208.606 19.7122C207.739 18.9928 206.584 18.5611 205.428 18.5611C204.272 18.5611 203.261 18.9928 202.394 19.7122C201.527 20.4316 200.95 21.4388 200.661 22.5899Z" fill="black"/>
    <path d="M223.63 15.6834C225.653 15.6834 227.387 16.4028 228.831 17.6978V15.9712H232.009V31.6546H228.831V29.928C227.387 31.3669 225.653 31.9424 223.63 31.9424C221.464 31.9424 219.585 31.223 218.141 29.6402C216.696 28.0575 215.974 26.187 215.974 23.741C215.974 21.2949 216.696 19.4244 218.141 17.8417C219.585 16.4028 221.464 15.6834 223.63 15.6834ZM223.919 18.8489C222.619 18.8489 221.464 19.2805 220.452 20.2877C219.585 21.2949 219.008 22.446 219.008 23.8848C219.008 25.3237 219.441 26.6187 220.452 27.482C221.464 28.4892 222.475 28.9208 223.919 28.9208C225.364 28.9208 226.52 28.4892 227.387 27.482C228.253 26.4748 228.831 25.3237 228.831 23.8848C228.831 22.446 228.398 21.151 227.387 20.2877C226.52 19.2805 225.364 18.8489 223.919 18.8489Z" fill="black"/>
    <path d="M234.321 18.8489V16.1151H236.777V12.9496H239.955V16.1151H244.145V18.8489H239.811V26.6186C239.811 27.1942 239.955 27.7697 240.389 28.2014C240.822 28.633 241.255 28.7769 241.978 28.7769H244V31.7985H241.689C240.244 31.7985 239.088 31.3668 238.077 30.5035C237.066 29.4963 236.632 28.3453 236.632 27.0503V18.8489H234.321Z" fill="black"/>
  </g>
  <defs>
    <clipPath id="clip0_1_19608">
      <rect width="244" height="40" fill="white"/>
    </clipPath>
  </defs>
</svg>