<svg xmlns="http://www.w3.org/2000/svg" width="147" height="23" viewBox="0 0 147 23" fill="none">
  <path d="M7.99909 5.8483C7.77828 4.52418 4.68692 4.52418 4.79732 5.8483C4.79732 6.28968 5.12854 6.40002 5.57017 6.73105C5.79098 6.8414 6.34301 7.06209 6.67422 7.17243L8.2199 7.61381C9.43437 7.94484 10.2072 8.38621 11.3113 9.04828C12.4153 9.71034 12.8569 11.0345 12.8569 12.5793C12.8569 14.1241 12.3049 15.4482 11.2009 16.4413C10.0968 17.4344 8.55112 17.8758 6.78463 17.8758C5.12854 17.8758 3.69326 17.4344 2.4788 16.662C1.26433 15.8896 0.491496 14.7862 0.160278 13.462L4.46611 12.5793C4.68692 13.3517 5.68057 14.0138 6.89503 14.0138C7.88868 14.0138 8.77193 13.5724 8.77193 13.0207C8.77193 12.6896 8.44071 12.4689 7.99909 12.1379C7.44706 11.9172 6.67422 11.5862 5.90138 11.3655C4.68692 10.9241 4.02448 10.7034 3.03083 10.1517C1.59555 9.26896 0.822713 8.16553 0.712307 6.17934C0.712307 4.63452 1.26434 3.42074 2.25799 2.53799C3.25164 1.65524 4.68692 1.10352 6.343 1.10352C7.77828 1.10352 9.10315 1.43455 10.2072 2.20695C11.3113 2.97936 11.9737 3.86211 12.3049 5.0759L7.99909 5.8483Z" fill="white"/>
  <path d="M13.6298 11.4758C13.6298 9.71025 14.2922 8.16543 15.5067 6.95165C16.7211 5.73787 18.2668 5.07581 20.1437 5.07581C22.0206 5.07581 23.5663 5.62752 24.7807 6.95165C25.9952 8.16543 26.6576 9.59991 26.6576 11.4758C26.6576 13.3516 25.9952 14.7861 24.7807 15.9999C23.5663 17.2136 22.0206 17.7654 20.1437 17.7654C18.2668 17.7654 16.7211 17.2136 15.5067 15.9999C14.2922 14.7861 13.6298 13.2413 13.6298 11.4758ZM22.4622 11.4758C22.4622 10.1516 21.4686 9.15853 20.1437 9.15853C18.9292 9.15853 17.9356 10.1516 17.9356 11.4758C17.9356 12.7999 18.9292 13.793 20.1437 13.793C21.4686 13.793 22.4622 12.7999 22.4622 11.4758Z" fill="white"/>
  <path d="M36.1525 10.7034C35.8213 9.82061 35.0485 9.15854 33.9444 9.15854C32.6196 9.15854 31.7363 10.1516 31.7363 11.4758C31.7363 12.7999 32.73 13.793 33.9444 13.793C34.9381 13.793 35.7109 13.1309 36.1525 12.2482L40.2376 13.462C39.7959 14.7861 39.0231 15.7792 37.919 16.6619C36.815 17.4343 35.4901 17.8757 34.0548 17.8757C32.1779 17.8757 30.6323 17.324 29.4178 16.1102C28.2033 14.8964 27.5409 13.3516 27.5409 11.5861C27.5409 9.82061 28.2033 8.27579 29.4178 7.06201C30.6323 5.84823 32.1779 5.29651 34.0548 5.29651C35.4901 5.29651 36.815 5.73788 37.919 6.51029C39.0231 7.2827 39.7959 8.38614 40.2376 9.59992L36.1525 10.7034Z" fill="white"/>
  <path d="M45.6475 2.42757C45.6475 3.86204 44.6539 4.85513 43.2186 4.85513C41.8937 4.85513 40.7897 3.86204 40.7897 2.42757C40.7897 0.993095 41.8937 0 43.2186 0C44.5435 0 45.6475 0.993095 45.6475 2.42757ZM41.1209 17.5447V5.51719H45.2059V17.5447H41.1209Z" fill="white"/>
  <path d="M54.8112 6.1793V5.51723H58.8962V17.5447H54.8112V16.8826C53.9279 17.5447 52.9343 17.8757 51.8302 17.8757C50.2845 17.8757 48.9597 17.324 47.8556 16.1102C46.862 14.8965 46.3099 13.3516 46.3099 11.5861C46.3099 9.82064 46.862 8.27583 47.8556 7.06205C48.9597 5.84826 50.2845 5.29654 51.8302 5.29654C52.9343 5.1862 53.9279 5.51723 54.8112 6.1793ZM52.7135 9.15858C51.499 9.15858 50.6158 10.1517 50.6158 11.4758C50.6158 12.7999 51.499 13.793 52.7135 13.793C53.9279 13.793 54.8112 12.7999 54.8112 11.4758C54.8112 10.1517 53.8175 9.15858 52.7135 9.15858Z" fill="white"/>
  <path d="M60.3314 17.5447V0.110352H64.4164V17.4343H60.3314V17.5447Z" fill="white"/>
  <path d="M67.839 1.3241H75.2362C76.7819 1.3241 78.1067 1.76547 79.1004 2.75857C80.2044 3.75166 80.6461 4.96544 80.6461 6.39991C80.6461 7.50335 80.3148 8.38611 79.7628 9.26886C79.2108 10.1516 78.4379 10.7033 77.4443 11.1447L81.3085 17.5446H78.4379L74.7945 11.5861H70.4887V17.5446H67.839C67.839 17.5446 67.839 1.3241 67.839 1.3241ZM75.2362 3.75166H70.3783V9.15851H75.2362C76.009 9.15851 76.6715 8.93782 77.2235 8.3861C77.7755 7.83439 77.9963 7.17232 77.9963 6.39991C77.9963 5.62751 77.7755 4.96544 77.2235 4.41372C76.6715 3.97235 76.009 3.75166 75.2362 3.75166Z" fill="white"/>
  <path d="M94.8885 12.3585H84.8415C85.0623 13.3516 85.504 14.124 86.1664 14.6757C86.8288 15.2275 87.8225 15.5585 88.8161 15.5585C90.141 15.5585 91.2451 15.0068 92.0179 14.0137L94.3364 14.7861C93.7844 15.7792 93.0116 16.4412 92.0179 16.993C91.0242 17.5447 89.9202 17.7654 88.7057 17.7654C86.8288 17.7654 85.2831 17.2136 84.0687 15.9999C82.8542 14.7861 82.1918 13.2413 82.1918 11.4758C82.1918 9.71026 82.7438 8.16544 83.9583 6.95166C85.1727 5.73788 86.7184 5.18616 88.4849 5.18616C90.2514 5.18616 91.7971 5.73788 92.9011 6.95166C94.1156 8.16544 94.6676 9.71026 94.6676 11.4758C94.9989 11.5861 94.8885 11.8068 94.8885 12.3585ZM84.9519 10.4827H92.4595C92.2387 9.59991 91.7971 8.82751 91.0243 8.27579C90.3618 7.72407 89.4786 7.39304 88.5953 7.39304C87.7121 7.39304 86.9392 7.72407 86.2768 8.27579C85.6144 8.82751 85.1727 9.59991 84.9519 10.4827Z" fill="white"/>
  <path d="M99.5255 22.7308H97.0966V5.5172H99.5255V6.84132C100.63 5.73788 101.954 5.29651 103.5 5.29651C105.156 5.29651 106.591 5.84823 107.695 7.06201C108.8 8.27579 109.352 9.71027 109.352 11.5861C109.352 13.462 108.8 14.8964 107.695 16.1102C106.591 17.324 105.156 17.8757 103.5 17.8757C101.954 17.8757 100.63 17.324 99.5255 16.3309V22.7308ZM103.279 7.61373C102.286 7.61373 101.402 7.94476 100.63 8.71717C99.9671 9.48958 99.5255 10.3723 99.5255 11.4758C99.5255 12.5792 99.8567 13.5723 100.63 14.2344C101.292 15.0068 102.175 15.3378 103.279 15.3378C104.273 15.3378 105.156 15.0068 105.929 14.2344C106.591 13.462 107.033 12.5792 107.033 11.4758C107.033 10.3723 106.702 9.37923 105.929 8.71717C105.156 7.94476 104.273 7.61373 103.279 7.61373Z" fill="white"/>
  <path d="M123.704 12.3585H113.657C113.878 13.3516 114.32 14.124 114.982 14.6757C115.645 15.2275 116.638 15.5585 117.632 15.5585C118.957 15.5585 120.061 15.0068 120.834 14.0137L123.152 14.7861C122.6 15.7792 121.827 16.4412 120.834 16.993C119.84 17.5447 118.736 17.7654 117.522 17.7654C115.645 17.7654 114.099 17.2136 112.885 15.9999C111.67 14.7861 111.008 13.2413 111.008 11.4758C111.008 9.71026 111.56 8.16544 112.774 6.95166C113.989 5.73788 115.534 5.18616 117.301 5.18616C119.067 5.18616 120.613 5.73788 121.717 6.95166C122.932 8.16544 123.484 9.71026 123.484 11.4758C123.815 11.5861 123.815 11.8068 123.704 12.3585ZM113.768 10.4827H121.275C121.055 9.59991 120.613 8.82751 119.84 8.27579C119.178 7.72407 118.294 7.39304 117.411 7.39304C116.528 7.39304 115.755 7.72407 115.093 8.27579C114.43 8.82751 113.989 9.59991 113.768 10.4827Z" fill="white"/>
  <path d="M131.322 5.18616C132.868 5.18616 134.193 5.73788 135.297 6.73097V5.40685H137.726V17.4343H135.297V16.1102C134.193 17.2136 132.868 17.655 131.322 17.655C129.666 17.655 128.231 17.1033 127.127 15.8895C126.023 14.6757 125.471 13.2413 125.471 11.3654C125.471 9.48957 126.023 8.0551 127.127 6.84131C128.231 5.73788 129.666 5.18616 131.322 5.18616ZM131.543 7.61372C130.549 7.61372 129.666 7.94475 128.893 8.71716C128.231 9.48957 127.789 10.3723 127.789 11.4758C127.789 12.5792 128.12 13.5723 128.893 14.2344C129.666 15.0068 130.439 15.3378 131.543 15.3378C132.647 15.3378 133.53 15.0068 134.193 14.2344C134.855 13.4619 135.297 12.5792 135.297 11.4758C135.297 10.3723 134.966 9.37922 134.193 8.71716C133.53 7.94475 132.647 7.61372 131.543 7.61372Z" fill="white"/>
  <path d="M139.492 7.6137V5.51716H141.369V3.0896H143.798V5.51716H147V7.6137H143.688V13.5723C143.688 14.0136 143.798 14.455 144.129 14.786C144.461 15.1171 144.792 15.2274 145.344 15.2274H146.889V17.5446H145.123C144.019 17.5446 143.136 17.2136 142.363 16.5516C141.59 15.7791 141.259 14.8964 141.259 13.9033V7.6137H139.492Z" fill="white"/>
</svg>










